<svg id="svg" xmlns="http://www.w3.org/2000/svg" xmlns:xlink="http://www.w3.org/1999/xlink" width="400" height="400" viewBox="0, 0, 400,400" version="1.1"><g id="svgg"><path id="path0" d="M156.572 93.514 C 154.828 94.942,152.529 97.243,152.529 97.561 C 152.529 97.681,151.916 98.703,151.167 99.831 C 150.418 100.960,149.805 102.051,149.805 102.256 C 149.805 103.314,148.652 103.574,147.385 102.801 C 144.606 101.105,143.134 100.389,142.428 100.389 C 142.022 100.389,141.427 100.126,141.106 99.805 C 140.439 99.139,139.041 99.025,138.842 99.622 C 138.769 99.842,138.185 100.061,137.545 100.108 C 136.905 100.156,136.206 100.330,135.992 100.495 C 135.778 100.660,134.607 101.448,133.389 102.246 C 132.171 103.044,129.545 104.853,127.552 106.268 C 123.019 109.485,116.032 113.176,110.700 115.169 C 110.272 115.329,109.457 115.679,108.889 115.947 C 108.321 116.215,107.665 116.316,107.430 116.171 C 107.188 116.021,107.004 116.181,107.004 116.540 C 107.004 116.996,106.786 117.104,106.226 116.926 C 105.798 116.790,105.447 116.849,105.447 117.056 C 105.447 117.525,103.160 118.424,102.237 118.317 C 101.863 118.274,101.556 118.404,101.556 118.605 C 101.556 118.807,100.987 119.183,100.292 119.441 C 99.596 119.698,98.723 120.070,98.352 120.266 C 97.980 120.462,97.323 120.623,96.892 120.623 C 96.462 120.623,96.109 120.818,96.109 121.057 C 96.109 121.300,95.766 121.402,95.331 121.288 C 94.903 121.176,94.553 121.229,94.553 121.407 C 94.553 121.584,92.933 122.526,90.953 123.502 C 83.071 127.385,76.863 132.535,75.272 136.511 C 74.916 137.403,74.484 138.132,74.313 138.132 C 73.612 138.132,72.927 148.899,73.595 149.416 C 73.733 149.523,73.909 150.399,73.986 151.362 C 74.062 152.325,74.245 153.204,74.392 153.315 C 74.698 153.547,74.893 163.840,74.762 172.920 C 74.706 176.826,74.823 179.259,75.080 179.515 C 75.303 179.739,75.489 180.194,75.491 180.525 C 75.497 181.238,78.421 187.080,79.217 187.968 C 79.519 188.306,79.767 188.700,79.767 188.844 C 79.767 188.988,80.073 189.429,80.447 189.824 C 80.822 190.219,81.479 191.042,81.907 191.652 C 82.538 192.551,85.191 196.006,86.675 197.860 C 88.047 199.574,88.753 200.898,88.562 201.396 C 88.432 201.735,88.501 201.884,88.725 201.746 C 89.218 201.441,92.521 204.978,93.969 207.362 C 96.269 211.149,102.937 216.788,106.420 217.891 C 107.276 218.162,108.267 218.529,108.623 218.706 C 109.995 219.392,113.619 216.828,113.619 215.171 C 113.619 214.745,113.794 214.397,114.008 214.397 C 114.241 214.397,114.397 212.848,114.397 210.529 C 114.397 208.142,114.560 206.560,114.824 206.397 C 115.090 206.232,115.208 205.016,115.138 203.164 C 115.001 199.524,115.557 190.323,115.929 190.093 C 116.078 190.001,116.416 193.024,116.681 196.811 C 116.946 200.598,117.320 204.572,117.512 205.642 C 119.020 214.039,120.540 220.300,122.515 226.255 C 123.152 228.175,123.589 229.882,123.487 230.048 C 123.384 230.214,123.479 230.350,123.697 230.350 C 123.915 230.350,124.305 231.094,124.564 232.004 C 124.822 232.913,125.179 233.824,125.357 234.027 C 125.535 234.231,125.681 234.712,125.681 235.097 C 125.681 235.482,125.856 235.798,126.070 235.798 C 126.284 235.798,126.459 236.148,126.459 236.576 C 126.459 237.004,126.634 237.354,126.848 237.354 C 127.062 237.354,127.237 237.570,127.237 237.834 C 127.237 238.445,129.280 242.564,129.669 242.737 C 129.830 242.808,129.961 243.114,129.961 243.418 C 129.961 243.721,130.116 243.969,130.305 243.969 C 130.494 243.969,130.746 244.275,130.864 244.650 C 131.076 245.317,132.300 247.475,132.685 247.860 C 133.084 248.260,134.301 250.505,136.163 254.280 C 141.053 264.196,142.150 271.575,141.085 287.388 C 140.770 292.056,140.811 292.709,141.575 295.223 C 142.430 298.039,145.312 301.946,146.534 301.946 C 146.835 301.946,147.082 302.094,147.082 302.275 C 147.082 302.457,147.647 302.621,148.338 302.641 C 149.030 302.661,149.657 302.862,149.733 303.089 C 149.808 303.316,150.261 303.502,150.737 303.502 C 151.256 303.502,151.963 303.987,152.497 304.709 C 154.388 307.266,160.080 308.330,163.230 306.714 C 166.246 305.167,168.531 302.056,169.985 297.514 L 170.623 295.525 172.877 295.408 C 174.836 295.306,175.550 295.022,178.325 293.238 C 183.610 289.838,185.757 289.571,194.320 291.245 C 200.555 292.464,202.846 292.464,208.247 291.245 C 214.380 289.861,215.488 289.999,218.093 292.475 C 219.793 294.089,221.711 295.331,222.508 295.331 C 223.453 295.331,223.657 296.421,222.860 297.218 C 222.168 297.911,222.238 301.597,222.957 302.390 C 223.278 302.744,223.962 303.498,224.476 304.066 C 226.943 306.788,231.210 306.907,235.974 304.387 C 237.596 303.529,238.381 303.372,240.935 303.393 C 242.604 303.407,243.969 303.262,243.969 303.071 C 243.969 302.880,244.267 302.724,244.631 302.724 C 246.047 302.724,250.195 297.203,250.195 295.317 C 250.195 294.922,250.370 294.490,250.584 294.358 C 250.798 294.226,250.973 293.638,250.973 293.051 C 250.973 292.464,251.187 291.770,251.449 291.509 C 251.710 291.247,251.870 290.399,251.803 289.625 C 251.701 288.440,251.786 288.257,252.337 288.468 C 252.917 288.691,252.961 288.498,252.724 286.772 C 252.543 285.459,252.595 284.825,252.882 284.825 C 253.119 284.825,253.307 284.136,253.307 283.268 C 253.307 282.412,253.481 281.712,253.694 281.712 C 253.906 281.712,254.051 280.978,254.016 280.081 C 253.979 279.129,254.142 278.386,254.407 278.297 C 254.681 278.206,254.768 277.769,254.626 277.202 C 254.481 276.627,254.637 275.881,255.023 275.291 C 255.401 274.714,255.565 273.951,255.427 273.404 C 255.287 272.844,255.419 272.263,255.768 271.914 C 256.127 271.555,256.261 270.935,256.128 270.241 C 255.995 269.544,256.117 268.983,256.461 268.713 C 256.759 268.479,257.039 267.588,257.083 266.732 C 257.219 264.037,257.655 261.868,258.059 261.868 C 258.274 261.868,258.357 261.627,258.244 261.333 C 258.047 260.820,259.106 256.801,260.513 252.728 C 261.654 249.424,263.934 244.595,266.950 239.091 C 269.482 234.471,274.319 224.734,274.319 224.256 C 274.319 223.970,274.458 223.735,274.627 223.735 C 274.797 223.735,275.147 222.947,275.404 221.984 C 275.662 221.021,276.059 220.233,276.286 220.233 C 276.514 220.233,276.608 220.085,276.495 219.903 C 276.383 219.721,276.973 217.576,277.808 215.136 C 278.642 212.696,279.794 209.037,280.367 207.004 C 281.467 203.102,282.101 201.855,282.101 203.596 C 282.101 204.161,282.276 204.732,282.490 204.864 C 282.704 204.996,282.879 205.619,282.879 206.249 C 282.879 206.878,283.041 207.393,283.238 207.393 C 283.435 207.393,283.713 207.875,283.857 208.463 C 284.271 210.159,286.495 211.761,288.735 211.976 C 292.903 212.377,298.325 207.769,304.429 198.638 C 306.288 195.856,307.952 193.397,308.126 193.173 C 308.300 192.949,308.513 192.580,308.599 192.354 C 309.071 191.106,311.548 187.563,311.953 187.557 C 312.214 187.552,312.331 187.300,312.215 186.995 C 312.098 186.691,312.335 186.108,312.743 185.701 C 313.150 185.293,313.583 184.701,313.705 184.383 C 313.944 183.759,317.641 177.925,318.284 177.157 C 318.500 176.898,318.677 176.606,318.677 176.508 C 318.677 176.409,319.430 175.045,320.350 173.476 C 321.270 171.906,322.340 169.922,322.727 169.066 C 323.114 168.210,323.675 167.001,323.972 166.380 C 324.270 165.759,324.514 165.014,324.514 164.726 C 324.514 164.438,324.667 164.202,324.854 164.202 C 325.041 164.202,325.195 163.745,325.195 163.185 C 325.195 162.626,325.410 162.035,325.674 161.872 C 325.938 161.709,326.049 161.247,325.922 160.846 C 325.795 160.445,325.926 159.663,326.214 159.109 C 326.815 157.951,326.997 145.136,326.412 145.136 C 326.224 145.136,326.070 144.763,326.070 144.306 C 326.070 143.379,325.416 140.786,324.808 139.300 C 324.589 138.765,324.236 137.889,324.025 137.354 C 322.767 134.175,320.003 129.544,315.663 123.346 C 310.788 116.383,305.051 110.293,300.575 107.329 C 297.036 104.985,295.054 103.891,294.346 103.891 C 294.032 103.891,293.774 103.736,293.774 103.546 C 293.774 103.202,292.549 102.870,289.786 102.466 C 288.983 102.349,288.327 102.096,288.327 101.905 C 288.327 101.393,281.807 101.465,281.636 101.978 C 281.559 102.210,280.669 102.399,279.658 102.399 C 278.648 102.399,277.821 102.560,277.821 102.756 C 277.821 102.952,277.219 103.113,276.482 103.113 C 275.746 103.113,275.035 103.288,274.903 103.502 C 274.612 103.972,268.360 104.025,267.407 103.565 C 267.036 103.386,265.747 102.763,264.545 102.182 C 263.342 101.601,261.992 100.784,261.545 100.368 C 261.099 99.952,260.584 99.611,260.401 99.611 C 260.218 99.611,259.725 99.304,259.304 98.930 C 258.883 98.555,257.843 97.907,256.993 97.489 C 256.143 97.071,255.218 96.560,254.938 96.353 C 254.658 96.145,253.960 95.925,253.387 95.864 C 252.814 95.803,252.285 95.571,252.211 95.348 C 252.053 94.874,247.860 94.788,247.860 95.259 C 247.860 95.434,246.897 95.976,245.720 96.464 C 244.543 96.952,243.580 97.476,243.580 97.629 C 243.580 97.782,243.265 98.247,242.879 98.662 C 242.494 99.077,242.062 99.723,241.919 100.097 C 241.656 100.784,240.078 101.073,240.078 100.434 C 240.078 100.244,237.778 100.085,234.967 100.080 C 232.157 100.076,229.749 99.907,229.617 99.705 C 229.292 99.208,199.885 99.201,199.566 99.698 C 199.431 99.908,196.961 100.069,193.929 100.065 C 190.698 100.061,188.434 100.216,188.288 100.452 C 188.154 100.669,186.576 100.851,184.781 100.858 C 182.986 100.864,181.409 101.041,181.277 101.251 C 181.144 101.460,180.098 101.625,178.952 101.616 C 177.805 101.607,176.754 101.783,176.616 102.006 C 176.478 102.230,175.730 102.412,174.953 102.412 C 174.176 102.412,173.541 102.570,173.541 102.763 C 173.541 102.955,173.016 103.113,172.374 103.113 C 171.732 103.113,171.206 103.288,171.206 103.502 C 171.206 103.716,170.779 103.891,170.256 103.891 C 169.734 103.891,169.198 104.066,169.066 104.280 C 168.934 104.494,168.483 104.669,168.065 104.669 C 167.647 104.669,167.001 104.823,166.629 105.011 C 161.081 107.814,150.359 107.167,151.135 104.076 C 151.689 101.867,155.341 96.917,158.086 94.652 C 158.668 94.172,159.144 93.534,159.144 93.235 C 159.144 92.178,158.060 92.295,156.572 93.514 M254.662 98.400 C 255.582 98.807,257.651 100.028,259.260 101.114 C 263.242 103.802,266.302 105.286,268.977 105.829 C 271.380 106.316,271.594 106.291,277.821 104.779 C 292.101 101.312,303.277 107.962,316.547 127.821 C 322.806 137.188,324.620 142.400,324.673 151.167 C 324.734 161.336,322.732 166.625,313.184 181.518 C 310.577 185.584,306.675 191.673,304.514 195.050 C 293.810 211.773,286.597 214.824,284.273 203.614 C 283.136 198.133,283.138 196.306,284.284 189.300 C 287.072 172.254,285.363 159.530,278.952 149.611 C 277.984 148.113,276.521 145.136,275.700 142.996 C 270.844 130.333,260.579 114.436,254.955 110.869 C 250.593 108.103,245.979 110.665,246.860 115.364 C 247.326 117.844,250.870 122.529,255.991 127.432 C 270.709 141.525,274.519 145.560,275.524 148.117 C 276.392 150.323,278.148 156.812,278.736 159.983 C 280.466 169.319,280.878 174.240,281.013 187.160 L 281.116 197.082 279.827 202.140 C 276.863 213.776,272.863 223.953,266.754 235.409 C 258.158 251.529,258.050 251.850,251.925 279.767 C 247.508 299.895,246.845 301.167,240.777 301.167 C 238.779 301.167,237.816 301.414,235.584 302.497 C 227.042 306.640,220.774 301.315,226.461 294.745 C 228.286 292.636,230.949 287.493,231.546 284.924 C 232.218 282.031,232.249 281.968,232.787 282.406 C 234.714 283.976,238.506 283.562,240.374 281.578 C 242.639 279.171,242.941 276.203,241.537 270.129 C 240.363 265.052,240.387 253.183,241.594 242.099 C 244.010 219.917,241.724 210.791,231.146 200.389 C 222.862 192.243,221.576 190.207,220.644 183.755 C 220.326 181.559,220.623 177.374,221.235 175.409 C 221.516 174.507,222.444 174.939,222.737 176.108 C 223.984 181.073,232.103 183.064,234.142 178.904 C 234.663 177.841,235.650 175.522,235.927 174.708 C 236.036 174.387,236.139 175.154,236.156 176.413 C 236.196 179.373,237.113 180.862,239.776 182.288 C 240.905 182.893,242.617 183.951,243.580 184.641 C 248.031 187.828,250.928 188.329,254.667 186.560 C 264.886 181.726,262.245 164.889,250.389 159.292 C 245.555 157.010,242.034 158.343,237.878 164.028 C 235.928 166.695,234.553 162.035,236.372 158.930 C 237.805 156.485,240.193 155.397,245.283 154.869 C 253.871 153.978,254.809 148.429,246.959 144.957 C 233.427 138.973,224.933 143.898,217.465 162.062 C 216.145 165.272,214.827 168.451,214.536 169.125 C 214.246 169.799,214.008 170.460,214.008 170.593 C 214.008 170.900,207.374 187.689,207.171 187.897 C 206.256 188.833,202.644 184.580,201.752 181.518 C 201.295 179.951,198.833 160.252,198.833 158.168 C 198.833 157.217,197.422 156.719,196.720 157.422 C 196.252 157.889,196.109 158.883,196.109 161.665 C 196.109 172.974,193.228 183.179,188.117 189.973 C 185.373 193.621,185.642 196.060,188.845 196.593 C 189.385 196.682,188.639 197.055,186.770 197.629 C 176.129 200.895,170.867 208.689,174.267 216.148 C 178.684 225.837,192.353 221.804,189.721 211.588 C 188.886 208.346,189.358 207.241,191.217 208.087 C 193.938 209.327,195.152 215.805,193.372 219.592 C 192.626 221.178,189.848 224.125,189.097 224.125 C 188.448 224.125,187.967 226.097,188.362 227.139 C 189.390 229.851,192.259 231.519,196.491 231.863 L 199.416 232.101 199.707 238.327 C 199.867 241.751,200.253 245.917,200.564 247.584 C 200.876 249.252,201.066 250.827,200.987 251.086 C 200.908 251.345,200.738 252.035,200.611 252.619 C 200.309 253.997,198.892 254.702,195.720 255.052 C 181.719 256.596,174.934 261.826,165.757 278.145 C 160.728 287.089,157.509 290.272,153.493 290.272 C 148.206 290.272,147.337 283.511,150.395 266.148 C 151.661 258.954,151.814 251.252,150.819 244.747 C 149.085 233.418,148.959 232.059,149.136 226.654 C 149.473 216.372,152.005 211.112,162.242 199.416 C 174.437 185.485,177.462 179.850,177.491 171.012 C 177.532 158.499,172.356 154.932,157.977 157.566 C 155.516 158.017,151.235 158.739,148.463 159.170 C 139.784 160.521,136.185 163.634,140.478 166.077 C 142.017 166.952,142.002 166.984,139.166 169.008 C 136.389 170.990,133.501 174.008,130.915 177.632 C 127.698 182.141,125.779 181.141,124.787 174.439 C 123.854 168.138,121.555 167.141,118.597 171.755 L 117.826 172.957 118.047 170.565 C 119.406 155.833,126.640 139.621,137.686 126.550 C 142.497 120.857,144.745 117.411,147.472 111.549 C 149.311 107.596,149.720 106.979,150.389 107.151 C 150.817 107.261,152.125 107.623,153.295 107.955 C 157.389 109.119,161.539 108.638,169.766 106.047 C 181.525 102.345,207.747 100.586,230.545 101.972 C 243.213 102.742,242.873 102.758,243.524 101.362 C 245.343 97.457,249.831 96.263,254.662 98.400 M143.693 102.768 C 145.884 103.868,147.860 105.379,147.860 105.954 C 147.858 108.493,141.375 119.265,135.693 126.169 C 133.623 128.684,131.203 131.725,130.315 132.926 C 120.638 146.027,115.181 165.969,113.611 193.969 C 112.418 215.259,112.152 216.567,109.035 216.506 C 104.137 216.410,99.679 212.092,86.573 194.747 C 76.891 181.934,75.693 178.880,76.601 169.321 C 77.322 161.721,77.175 157.152,76.033 151.705 C 72.825 136.407,77.868 130.667,103.841 120.052 C 119.510 113.649,123.414 111.629,131.745 105.618 C 137.096 101.758,140.204 101.016,143.693 102.768 M253.720 112.383 C 258.222 115.238,268.398 129.862,271.569 138.035 C 272.639 140.791,272.761 140.871,265.631 134.144 C 248.766 118.231,245.553 113.410,250.584 111.560 C 251.623 111.178,251.960 111.267,253.720 112.383 M243.544 145.524 C 251.054 148.461,252.693 152.089,246.790 152.708 C 238.943 153.530,235.023 155.683,233.880 159.797 C 233.168 162.360,234.020 165.550,235.661 166.468 C 236.355 166.856,236.355 166.924,235.657 168.745 C 235.261 169.778,234.524 172.089,234.018 173.882 C 231.821 181.671,226.528 181.594,223.896 173.735 C 222.534 169.669,221.810 169.406,220.450 172.480 C 216.626 181.127,218.811 191.050,226.038 197.860 C 235.112 206.410,236.953 208.976,239.158 216.148 C 240.562 220.716,240.748 236.044,239.523 246.304 C 238.515 254.755,238.561 263.869,239.641 269.433 C 241.082 276.861,240.621 280.032,237.936 281.154 C 234.426 282.621,230.503 279.006,228.191 272.176 C 225.122 263.108,218.629 256.058,213.316 256.024 C 208.654 255.995,205.008 254.169,203.688 251.203 C 202.805 249.220,202.907 231.526,203.806 230.688 C 204.114 230.401,210.405 227.755,213.327 226.683 C 217.100 225.300,217.327 223.217,214.084 219.732 C 211.637 217.101,210.599 214.613,211.037 212.424 C 212.130 206.959,215.953 207.144,215.953 212.662 C 215.953 221.095,221.859 223.459,226.271 216.792 C 231.072 209.537,228.025 202.332,218.505 198.430 C 211.670 195.629,209.261 193.417,209.232 189.916 C 209.214 187.824,218.963 162.384,222.240 155.969 C 227.191 146.279,235.303 142.301,243.544 145.524 M281.886 160.317 C 283.121 164.385,283.657 168.641,283.657 174.393 C 283.658 180.836,283.105 182.389,282.752 176.936 C 282.350 170.727,282.091 168.421,281.254 163.619 C 279.947 156.120,279.982 156.481,280.659 157.398 C 280.978 157.829,281.530 159.142,281.886 160.317 M170.233 159.101 C 174.973 161.289,177.123 168.771,175.117 176.093 C 173.193 183.115,170.598 187.056,159.484 199.837 C 147.832 213.238,145.677 220.741,148.154 239.300 C 149.970 252.912,149.949 258.066,148.031 269.401 C 145.417 284.845,146.862 291.548,152.930 292.131 C 155.267 292.356,158.127 291.113,160.857 288.685 L 162.765 286.989 162.478 288.517 C 161.588 293.261,159.264 296.474,155.447 298.237 C 153.949 298.930,152.390 299.872,151.982 300.332 C 149.880 302.702,144.942 299.544,143.315 294.790 C 142.523 292.476,142.465 288.598,143.115 281.357 C 144.252 268.673,141.703 259.404,133.039 244.726 C 122.871 227.499,117.939 207.911,118.399 186.576 C 118.612 176.707,119.116 173.714,120.855 171.984 C 122.217 170.630,122.731 171.422,123.287 175.736 C 124.202 182.822,127.854 184.384,131.802 179.377 C 138.392 171.022,138.911 170.851,138.911 177.032 C 138.911 181.082,139.030 181.961,139.830 183.769 C 145.568 196.743,168.347 186.596,163.752 173.113 C 161.748 167.235,157.118 164.858,147.588 164.813 C 141.562 164.785,140.495 164.538,140.976 163.283 C 141.798 161.141,166.884 157.555,170.233 159.101 M244.542 160.835 C 242.368 162.319,241.634 162.699,241.634 162.340 C 241.634 161.845,243.964 160.327,244.736 160.318 C 245.142 160.313,245.085 160.464,244.542 160.835 M251.601 162.459 C 255.542 165.465,257.246 175.571,254.418 179.167 C 252.068 182.154,247.339 182.020,244.017 178.871 C 240.793 175.814,239.224 167.651,241.463 165.576 C 245.716 161.635,249.140 160.582,251.601 162.459 M155.631 167.990 C 160.946 170.650,161.947 177.533,157.592 181.467 C 151.409 187.053,142.709 181.323,142.903 171.790 C 142.911 171.362,142.793 170.559,142.639 170.006 C 142.381 169.074,142.524 168.929,144.624 167.999 C 148.723 166.184,152.018 166.181,155.631 167.990 M199.384 179.122 C 200.516 184.954,204.064 189.952,206.683 189.401 C 206.970 189.341,207.274 189.929,207.436 190.856 C 207.585 191.712,207.825 192.783,207.971 193.236 C 208.225 194.028,208.084 194.068,204.215 194.299 C 202.004 194.431,198.706 194.685,196.887 194.863 C 188.633 195.670,186.644 194.547,189.791 190.856 C 192.719 187.421,196.258 178.389,197.109 172.179 C 197.646 168.262,198.209 168.340,198.514 172.374 C 198.667 174.407,199.059 177.444,199.384 179.122 M259.086 175.024 C 259.499 183.103,252.272 188.386,246.445 184.265 C 245.404 183.529,243.278 182.197,241.720 181.305 C 238.463 179.440,237.553 178.151,237.929 175.930 C 238.348 173.449,238.794 173.158,239.496 174.909 C 241.698 180.401,245.251 183.268,249.853 183.268 C 254.716 183.268,257.753 179.521,257.772 173.496 C 257.786 169.463,258.866 170.719,259.086 175.024 M141.657 176.512 C 143.448 185.269,153.290 188.215,159.868 181.963 C 161.464 180.447,161.530 180.420,160.971 181.518 C 158.693 185.985,150.639 189.421,146.617 187.641 C 142.446 185.796,140.942 183.474,140.578 178.312 C 140.338 174.906,141.077 173.674,141.657 176.512 M208.848 196.353 C 211.741 197.129,204.997 197.651,200.541 196.997 L 198.638 196.718 200.000 196.464 C 201.793 196.131,207.741 196.056,208.848 196.353 M219.632 200.934 C 227.250 204.640,228.908 212.403,223.161 217.449 C 220.074 220.160,218.364 218.856,217.900 213.439 C 217.397 207.572,214.885 205.031,211.755 207.224 C 207.951 209.888,208.464 217.099,212.750 221.206 C 214.656 223.032,214.788 224.010,213.227 224.756 C 211.354 225.651,204.607 228.405,204.287 228.405 C 204.109 228.405,203.902 225.122,203.825 221.109 C 203.676 213.241,203.380 211.914,201.826 212.136 C 200.336 212.349,200.006 213.892,199.703 222.048 L 199.416 229.767 197.071 229.880 C 194.533 230.003,192.604 229.401,191.148 228.031 C 189.860 226.819,190.054 226.116,192.249 224.022 C 197.364 219.144,197.362 210.168,192.246 206.719 C 188.679 204.316,186.704 207.177,188.014 212.850 C 189.437 219.014,181.316 222.377,177.166 217.342 C 173.889 213.367,174.498 208.311,178.763 204.067 C 183.552 199.301,185.685 198.852,202.798 199.005 L 215.907 199.122 219.632 200.934 M203.891 254.883 C 205.189 256.306,208.125 257.355,212.062 257.802 C 218.621 258.548,222.741 262.956,226.714 273.478 C 227.226 274.834,227.975 276.590,228.378 277.380 L 229.111 278.817 228.153 279.671 C 227.209 280.511,227.198 280.589,227.465 284.804 L 227.736 289.084 226.255 291.235 C 224.051 294.434,223.355 294.336,218.064 290.087 C 216.112 288.519,212.899 288.324,207.677 289.455 C 202.957 290.478,199.801 290.479,194.358 289.459 C 185.738 287.843,182.455 288.282,177.080 291.769 C 174.981 293.130,174.273 293.385,172.594 293.385 C 169.891 293.385,169.103 294.046,168.098 297.156 C 165.523 305.128,159.247 308.248,154.377 303.978 C 153.346 303.074,153.558 302.601,155.360 301.784 C 162.309 298.635,170.920 283.913,166.490 282.754 C 165.452 282.483,165.504 282.333,168.479 276.937 C 175.706 263.834,182.137 259.005,194.959 257.052 C 199.337 256.385,200.282 256.049,201.522 254.715 C 202.443 253.726,202.863 253.755,203.891 254.883 M229.961 282.685 C 229.961 283.195,229.786 283.720,229.572 283.852 C 229.340 283.996,229.183 283.524,229.183 282.685 C 229.183 281.845,229.340 281.374,229.572 281.518 C 229.786 281.650,229.961 282.175,229.961 282.685 " stroke="none" fill="#000000" fill-rule="evenodd"/></g></svg>